<?xml version="1.0" encoding="utf-8"?>
<!-- Generator: Adobe Illustrator 22.0.1, SVG Export Plug-In . SVG Version: 6.00 Build 0)  -->
<svg version="1.1" id="圖層_1" xmlns="http://www.w3.org/2000/svg" xmlns:xlink="http://www.w3.org/1999/xlink" x="0px" y="0px"
	 viewBox="0 0 333.5 333.5" style="enable-background:new 0 0 333.5 333.5;" xml:space="preserve">
<style type="text/css">
	.st0{fill:#FFFFFF;}
	.st1{fill:url(#SVGID_1_);}
	.st2{fill:url(#SVGID_2_);}
	.st3{fill:url(#SVGID_3_);}
	.st4{fill:url(#SVGID_4_);}
	.st5{fill:url(#SVGID_5_);}
	.st6{fill:url(#SVGID_6_);}
	.st7{fill:url(#SVGID_7_);}
	.st8{fill:url(#SVGID_8_);}
	.st9{fill:url(#SVGID_9_);}
	.st10{fill:url(#SVGID_10_);}
	.st11{fill:url(#SVGID_11_);}
	.st12{fill:url(#SVGID_12_);}
	.st13{fill:url(#SVGID_13_);}
	.st14{fill:url(#SVGID_14_);}
	.st15{fill:url(#SVGID_15_);}
	.st16{fill:url(#SVGID_16_);}
	.st17{fill:url(#SVGID_17_);}
	.st18{fill:url(#SVGID_18_);}
	.st19{fill:url(#SVGID_19_);}
	.st20{fill:url(#SVGID_20_);}
	.st21{fill:url(#SVGID_21_);}
	.st22{fill:url(#SVGID_22_);}
	.st23{fill:url(#SVGID_23_);}
	.st24{fill:url(#SVGID_24_);}
	.st25{fill:url(#SVGID_25_);}
	.st26{fill:url(#SVGID_26_);}
	.st27{fill:url(#SVGID_27_);}
	.st28{fill:url(#SVGID_28_);}
	.st29{fill:url(#SVGID_29_);}
	.st30{fill:url(#SVGID_30_);}
	.st31{fill:url(#SVGID_31_);}
	.st32{fill:url(#SVGID_32_);}
	.st33{fill:url(#SVGID_33_);}
	.st34{fill:url(#SVGID_34_);}
	.st35{fill:url(#SVGID_35_);}
	.st36{fill:url(#SVGID_36_);}
	.st37{fill:url(#SVGID_37_);}
	.st38{fill:url(#SVGID_38_);}
	.st39{fill:url(#SVGID_39_);}
	.st40{fill:url(#SVGID_40_);}
	.st41{fill:url(#SVGID_41_);}
	.st42{fill:url(#SVGID_42_);}
	.st43{fill:url(#SVGID_43_);}
	.st44{fill:url(#SVGID_44_);}
	.st45{fill:url(#SVGID_45_);}
	.st46{fill:url(#SVGID_46_);}
	.st47{fill:#045EA8;}
</style>
<title>logo01</title>
<circle class="st0" cx="166.8" cy="167.8" r="159.9"/>
<linearGradient id="SVGID_1_" gradientUnits="userSpaceOnUse" x1="48.1794" y1="733.8" x2="189.2" y2="733.8" gradientTransform="matrix(1 0 0 1 -7 -512.5)">
	<stop  offset="0" style="stop-color:#00AA60"/>
	<stop  offset="1" style="stop-color:#2E3192"/>
</linearGradient>
<path class="st1" d="M51.7,129.8C30.1,182.7,41.2,233,90.2,263.4c6.6,4,13.4,7.7,20.5,11c18.9,9,38.1,15.6,52.4,23.6
	c7.2,4.1,13.1,8.3,18.1,14.8l1-0.7c-5.1-6.7-11.2-11-18.5-15.1c-14.4-8.1-33.6-14.7-52.5-23.6c-7-3.3-13.8-6.9-20.4-10.9
	C42.2,232.5,31,182.6,52.4,130L51.7,129.8z"/>
<linearGradient id="SVGID_2_" gradientUnits="userSpaceOnUse" x1="135.27" y1="786.15" x2="153.6823" y2="786.15" gradientTransform="matrix(1 0 0 1 -7 -512.5)">
	<stop  offset="0" style="stop-color:#00AA60"/>
	<stop  offset="1" style="stop-color:#2E3192"/>
</linearGradient>
<path class="st2" d="M128.3,260.6c2.8,1.8,5.6,3.8,8.2,5.9c10.6,8.9,10.9,14.9,9.7,20.2C138.9,281.1,129.2,278.8,128.3,260.6z"/>
<linearGradient id="SVGID_3_" gradientUnits="userSpaceOnUse" x1="117.775" y1="778.65" x2="134.695" y2="778.65" gradientTransform="matrix(1 0 0 1 -7 -512.5)">
	<stop  offset="0" style="stop-color:#00AA60"/>
	<stop  offset="1" style="stop-color:#2E3192"/>
</linearGradient>
<path class="st3" d="M110.8,253.4c8.8,6.5,18.6,14.8,16.6,25.5c-1.1-0.7-3.7-2.2-6.5-4.3s-5.6-4.6-7.1-7.2
	C111.6,263.1,110.6,258.3,110.8,253.4z"/>
<linearGradient id="SVGID_4_" gradientUnits="userSpaceOnUse" x1="101.4176" y1="770.45" x2="116.2783" y2="770.45" gradientTransform="matrix(1 0 0 1 -7 -512.5)">
	<stop  offset="0" style="stop-color:#00AA60"/>
	<stop  offset="1" style="stop-color:#2E3192"/>
</linearGradient>
<path class="st4" d="M94.8,245.1c8.8,8.1,15.9,16.3,14.2,25.7C100.3,265.1,92.5,258.8,94.8,245.1z"/>
<linearGradient id="SVGID_5_" gradientUnits="userSpaceOnUse" x1="86.5253" y1="760.7" x2="98.7839" y2="760.7" gradientTransform="matrix(1 0 0 1 -7 -512.5)">
	<stop  offset="0" style="stop-color:#00AA60"/>
	<stop  offset="1" style="stop-color:#2E3192"/>
</linearGradient>
<path class="st5" d="M80.9,235.1c8,10.1,12.3,18.5,10.5,26.2C82,254.3,76.9,246,80.9,235.1z"/>
<linearGradient id="SVGID_6_" gradientUnits="userSpaceOnUse" x1="73.6888" y1="748.8" x2="83.0945" y2="748.8" gradientTransform="matrix(1 0 0 1 -7 -512.5)">
	<stop  offset="0" style="stop-color:#00AA60"/>
	<stop  offset="1" style="stop-color:#2E3192"/>
</linearGradient>
<path class="st6" d="M69.6,222.9c4,7.7,8.4,18.6,5.6,26.8C65.3,239.5,64.9,230.2,69.6,222.9z"/>
<linearGradient id="SVGID_7_" gradientUnits="userSpaceOnUse" x1="63.3347" y1="734.35" x2="70.819" y2="734.35" gradientTransform="matrix(1 0 0 1 -7 -512.5)">
	<stop  offset="0" style="stop-color:#00AA60"/>
	<stop  offset="1" style="stop-color:#2E3192"/>
</linearGradient>
<path class="st7" d="M61.4,208.4c2.2,8.2,4.1,19.4,0.1,26.9C55.6,226.3,53.8,216,61.4,208.4z"/>
<linearGradient id="SVGID_8_" gradientUnits="userSpaceOnUse" x1="56.1411" y1="717.6" x2="63.6222" y2="717.6" gradientTransform="matrix(1 0 0 1 -7 -512.5)">
	<stop  offset="0" style="stop-color:#00AA60"/>
	<stop  offset="1" style="stop-color:#2E3192"/>
</linearGradient>
<path class="st8" d="M56.3,191.9c0.9,7.9,0.2,19.7-4.9,26.4C46.3,204,50.9,195.5,56.3,191.9z"/>
<linearGradient id="SVGID_9_" gradientUnits="userSpaceOnUse" x1="51.72" y1="699.3" x2="61.5" y2="699.3" gradientTransform="matrix(1 0 0 1 -7 -512.5)">
	<stop  offset="0" style="stop-color:#00AA60"/>
	<stop  offset="1" style="stop-color:#2E3192"/>
</linearGradient>
<path class="st9" d="M54.5,174.3c-0.2,2.4-0.5,4.8-1,7.1c-1.2,6.3-3.6,13.3-8.3,17.9C43,184.4,48.5,177,54.5,174.3z"/>
<linearGradient id="SVGID_10_" gradientUnits="userSpaceOnUse" x1="50.1" y1="680.3" x2="62.94" y2="680.3" gradientTransform="matrix(1 0 0 1 -7 -512.5)">
	<stop  offset="0" style="stop-color:#00AA60"/>
	<stop  offset="1" style="stop-color:#2E3192"/>
</linearGradient>
<path class="st10" d="M55.9,156.2c-1,5.5-4.8,17-12.8,23.2C43.4,164.3,50.1,157.8,55.9,156.2z"/>
<linearGradient id="SVGID_11_" gradientUnits="userSpaceOnUse" x1="51.64" y1="661.35" x2="67.24" y2="661.35" gradientTransform="matrix(1 0 0 1 -7 -512.5)">
	<stop  offset="0" style="stop-color:#00AA60"/>
	<stop  offset="1" style="stop-color:#2E3192"/>
</linearGradient>
<path class="st11" d="M60.2,138.2c-2.2,7.3-7.4,16-15.6,21.3C46.6,150.1,50.6,139.5,60.2,138.2z"/>
<linearGradient id="SVGID_12_" gradientUnits="userSpaceOnUse" x1="56.4" y1="642.7499" x2="74.03" y2="642.7499" gradientTransform="matrix(1 0 0 1 -7 -512.5)">
	<stop  offset="0" style="stop-color:#00AA60"/>
	<stop  offset="1" style="stop-color:#2E3192"/>
</linearGradient>
<path class="st12" d="M67,120.6c-3.4,8.3-9.6,15.2-17.6,19.3C51.1,135.4,55.9,120.7,67,120.6z"/>
<linearGradient id="SVGID_13_" gradientUnits="userSpaceOnUse" x1="60.2285" y1="625.6" x2="75.64" y2="625.6" gradientTransform="matrix(1 0 0 1 -7 -512.5)">
	<stop  offset="0" style="stop-color:#00AA60"/>
	<stop  offset="1" style="stop-color:#2E3192"/>
</linearGradient>
<path class="st13" d="M68.6,99c-2.4,7.5-8.6,24.1-15.4,28.2C52.8,119.8,56.7,108.9,68.6,99z"/>
<linearGradient id="SVGID_14_" gradientUnits="userSpaceOnUse" x1="118.6" y1="805.8452" x2="150.2" y2="805.8452" gradientTransform="matrix(1 0 0 1 -7 -512.5)">
	<stop  offset="0" style="stop-color:#00AA60"/>
	<stop  offset="1" style="stop-color:#2E3192"/>
</linearGradient>
<path class="st14" d="M111.6,295.8c3.4,1,6.9,1.7,10.4,2.1c13.7,1.6,18.3-2.8,21.2-7.1c-1.7-0.3-12-3.5-18.4-1.9
	C120,290.3,115.5,292.6,111.6,295.8z"/>
<linearGradient id="SVGID_15_" gradientUnits="userSpaceOnUse" x1="97.4" y1="796.2404" x2="129.66" y2="796.2404" gradientTransform="matrix(1 0 0 1 -7 -512.5)">
	<stop  offset="0" style="stop-color:#00AA60"/>
	<stop  offset="1" style="stop-color:#2E3192"/>
</linearGradient>
<path class="st15" d="M90.4,284.6c3.4,1.3,6.9,2.4,10.5,3.1c4.5,1,9.2,1,13.7,0c3.3-0.8,6.2-2.9,8-5.8c-0.9-0.2-3.9-1.1-7.4-1.8
	s-7.6-1.4-10.8-0.9C99.4,280.1,94.7,281.9,90.4,284.6z"/>
<linearGradient id="SVGID_16_" gradientUnits="userSpaceOnUse" x1="76.6" y1="784.9686" x2="109.2" y2="784.9686" gradientTransform="matrix(1 0 0 1 -7 -512.5)">
	<stop  offset="0" style="stop-color:#00AA60"/>
	<stop  offset="1" style="stop-color:#2E3192"/>
</linearGradient>
<path class="st16" d="M69.6,270.4c3.2,1.9,6.6,3.5,10.1,4.8c13,4.5,18.8,1.1,22.5-2.9c-1.9-0.5-11.6-4.7-17.8-4.7
	C79.4,267.7,74.4,268.7,69.6,270.4z"/>
<linearGradient id="SVGID_17_" gradientUnits="userSpaceOnUse" x1="58" y1="770.2133" x2="89.8" y2="770.2133" gradientTransform="matrix(1 0 0 1 -7 -512.5)">
	<stop  offset="0" style="stop-color:#00AA60"/>
	<stop  offset="1" style="stop-color:#2E3192"/>
</linearGradient>
<path class="st17" d="M51,251.9c2.7,2.7,5.8,5,9,7c11.5,7,18.3,5,22.8,1.6C74.4,256.9,71.5,251.1,51,251.9z"/>
<linearGradient id="SVGID_18_" gradientUnits="userSpaceOnUse" x1="44.04" y1="750.5046" x2="72.48" y2="750.5046" gradientTransform="matrix(1 0 0 1 -7 -512.5)">
	<stop  offset="0" style="stop-color:#00AA60"/>
	<stop  offset="1" style="stop-color:#2E3192"/>
</linearGradient>
<path class="st18" d="M37,229.2c6.2,10.4,17.1,21.3,28.4,16.4C56.5,239,57,234.3,37,229.2z"/>
<linearGradient id="SVGID_19_" gradientUnits="userSpaceOnUse" x1="36.4" y1="728.2087" x2="59.07" y2="728.2087" gradientTransform="matrix(1 0 0 1 -7 -512.5)">
	<stop  offset="0" style="stop-color:#00AA60"/>
	<stop  offset="1" style="stop-color:#2E3192"/>
</linearGradient>
<path class="st19" d="M29.4,204.2c1,3.5,2.3,6.8,4,10c6.2,11.4,12.8,13.6,18.6,12.9C45.3,218.8,47.5,214.4,29.4,204.2z"/>
<linearGradient id="SVGID_20_" gradientUnits="userSpaceOnUse" x1="34.56" y1="704.75" x2="50.72" y2="704.75" gradientTransform="matrix(1 0 0 1 -7 -512.5)">
	<stop  offset="0" style="stop-color:#00AA60"/>
	<stop  offset="1" style="stop-color:#2E3192"/>
</linearGradient>
<path class="st20" d="M27.6,178.6c0.8,11.8,4.5,25.1,16.2,27.3C39.6,196.6,42.5,192.8,27.6,178.6z"/>
<linearGradient id="SVGID_21_" gradientUnits="userSpaceOnUse" x1="37.34" y1="681.05" x2="47.4808" y2="681.05" gradientTransform="matrix(1 0 0 1 -7 -512.5)">
	<stop  offset="0" style="stop-color:#00AA60"/>
	<stop  offset="1" style="stop-color:#2E3192"/>
</linearGradient>
<path class="st21" d="M31,153.7c-1.5,11.5-0.8,24.6,9.5,29.7C38.7,173.2,41.8,169.9,31,153.7z"/>
<linearGradient id="SVGID_22_" gradientUnits="userSpaceOnUse" x1="42.7134" y1="657.9999" x2="50.2434" y2="657.9999" gradientTransform="matrix(1 0 0 1 -7 -512.5)">
	<stop  offset="0" style="stop-color:#00AA60"/>
	<stop  offset="1" style="stop-color:#2E3192"/>
</linearGradient>
<path class="st22" d="M38.5,130.3C35,141,33.4,153.5,42,160.7C42.5,151.1,46,147.8,38.5,130.3z"/>
<linearGradient id="SVGID_23_" gradientUnits="userSpaceOnUse" x1="50.85" y1="636.2" x2="58.3" y2="636.2" gradientTransform="matrix(1 0 0 1 -7 -512.5)">
	<stop  offset="0" style="stop-color:#00AA60"/>
	<stop  offset="1" style="stop-color:#2E3192"/>
</linearGradient>
<path class="st23" d="M49.3,108.6c-5,9.9-8.5,21.4-1.7,30.2C49.7,129.3,53.7,127.5,49.3,108.6z"/>
<linearGradient id="SVGID_24_" gradientUnits="userSpaceOnUse" x1="157.6" y1="734" x2="297.9031" y2="734" gradientTransform="matrix(1 0 0 1 -7 -512.5)">
	<stop  offset="0" style="stop-color:#00AA60"/>
	<stop  offset="1" style="stop-color:#2E3192"/>
</linearGradient>
<path class="st24" d="M279.4,130.2c23.6,57.3,10.2,111-58.2,143.5c-6.8,3.2-13.5,6.1-19.8,8.8c-24.1,10.2-41,17.1-50.8,30l1,0.7
	c10.2-13.5,30.4-21.3,50.2-29.7c6.3-2.7,13-5.6,19.8-8.9c67.9-32.5,82.7-86.2,58.3-144.8L279.4,130.2z"/>
<linearGradient id="SVGID_25_" gradientUnits="userSpaceOnUse" x1="195" y1="806.2007" x2="226.6" y2="806.2007" gradientTransform="matrix(1 0 0 1 -7 -512.5)">
	<stop  offset="0" style="stop-color:#00AA60"/>
	<stop  offset="1" style="stop-color:#2E3192"/>
</linearGradient>
<path class="st25" d="M219.6,296.2c-3.4,1-6.9,1.7-10.4,2.1c-4.5,0.6-9,0.3-13.4-0.9c-2.8-0.8-5.4-2.6-7.8-6.2c1-0.1,4-1,7.5-1.7
	s7.7-1,10.9-0.3C211.2,290.7,215.7,293,219.6,296.2z"/>
<linearGradient id="SVGID_26_" gradientUnits="userSpaceOnUse" x1="213.56" y1="797.5948" x2="245.46" y2="797.5948" gradientTransform="matrix(1 0 0 1 -7 -512.5)">
	<stop  offset="0" style="stop-color:#00AA60"/>
	<stop  offset="1" style="stop-color:#2E3192"/>
</linearGradient>
<path class="st26" d="M238.5,286.2c-7.4,2.6-15.8,4.6-23.6,2.8c-3.4-0.8-6.3-2.8-8.3-5.7c1.3-0.3,4.2-1.2,7.6-1.8
	C220.1,280.1,227.4,279.1,238.5,286.2z"/>
<linearGradient id="SVGID_27_" gradientUnits="userSpaceOnUse" x1="232.1" y1="787.6082" x2="264.1" y2="787.6082" gradientTransform="matrix(1 0 0 1 -7 -512.5)">
	<stop  offset="0" style="stop-color:#00AA60"/>
	<stop  offset="1" style="stop-color:#2E3192"/>
</linearGradient>
<path class="st27" d="M257.1,273.9c-10.1,5.4-24.4,9.3-32,0.7c4-1.5,8.2-2.7,12.4-3.6C243.9,269.8,251.3,271.3,257.1,273.9z"/>
<linearGradient id="SVGID_28_" gradientUnits="userSpaceOnUse" x1="249.9" y1="775.2516" x2="281.3" y2="775.2516" gradientTransform="matrix(1 0 0 1 -7 -512.5)">
	<stop  offset="0" style="stop-color:#00AA60"/>
	<stop  offset="1" style="stop-color:#2E3192"/>
</linearGradient>
<path class="st28" d="M274.3,258.6c-8.7,7.2-22.8,13.2-31.4,6.1C248.9,261.9,260.2,255.1,274.3,258.6z"/>
<linearGradient id="SVGID_29_" gradientUnits="userSpaceOnUse" x1="266.4" y1="759.2813" x2="295.5" y2="759.2813" gradientTransform="matrix(1 0 0 1 -7 -512.5)">
	<stop  offset="0" style="stop-color:#00AA60"/>
	<stop  offset="1" style="stop-color:#2E3192"/>
</linearGradient>
<path class="st29" d="M288.5,239.7c-6.8,9-19.4,17.7-29.1,12.7C264.6,248.7,275.2,239.6,288.5,239.7z"/>
<linearGradient id="SVGID_30_" gradientUnits="userSpaceOnUse" x1="280.34" y1="740.317" x2="305" y2="740.317" gradientTransform="matrix(1 0 0 1 -7 -512.5)">
	<stop  offset="0" style="stop-color:#00AA60"/>
	<stop  offset="1" style="stop-color:#2E3192"/>
</linearGradient>
<path class="st30" d="M298,218.1c-4,10-14.3,21.2-24.7,19.2C277.4,232.7,286.1,220.8,298,218.1z"/>
<linearGradient id="SVGID_31_" gradientUnits="userSpaceOnUse" x1="290.57" y1="720.1" x2="309.54" y2="720.1" gradientTransform="matrix(1 0 0 1 -7 -512.5)">
	<stop  offset="0" style="stop-color:#00AA60"/>
	<stop  offset="1" style="stop-color:#2E3192"/>
</linearGradient>
<path class="st31" d="M302.5,195.7c-1.2,7.9-7.7,22.5-19,23.8C286.4,213.7,292,200.5,302.5,195.7z"/>
<linearGradient id="SVGID_32_" gradientUnits="userSpaceOnUse" x1="296.53" y1="698.95" x2="309.59" y2="698.95" gradientTransform="matrix(1 0 0 1 -7 -512.5)">
	<stop  offset="0" style="stop-color:#00AA60"/>
	<stop  offset="1" style="stop-color:#2E3192"/>
</linearGradient>
<path class="st32" d="M302.6,173.1c0.5,10-3.8,22.9-13,26.7C290.9,194.5,293.5,179.4,302.6,173.1z"/>
<linearGradient id="SVGID_33_" gradientUnits="userSpaceOnUse" x1="298.4" y1="677.95" x2="306.5564" y2="677.95" gradientTransform="matrix(1 0 0 1 -7 -512.5)">
	<stop  offset="0" style="stop-color:#00AA60"/>
	<stop  offset="1" style="stop-color:#2E3192"/>
</linearGradient>
<path class="st33" d="M298.6,151.4c2.2,9.1,0.8,21.9-7.2,28.1C291.7,174.6,290.8,158.9,298.6,151.4z"/>
<linearGradient id="SVGID_34_" gradientUnits="userSpaceOnUse" x1="294.7757" y1="657.4999" x2="301.1948" y2="657.4999" gradientTransform="matrix(1 0 0 1 -7 -512.5)">
	<stop  offset="0" style="stop-color:#00AA60"/>
	<stop  offset="1" style="stop-color:#2E3192"/>
</linearGradient>
<path class="st34" d="M291.5,130.9c3.5,7.8,4.4,20-2,28.2C288.6,152.8,285.2,138.9,291.5,130.9z"/>
<linearGradient id="SVGID_35_" gradientUnits="userSpaceOnUse" x1="286.7427" y1="638.1" x2="293.6779" y2="638.1" gradientTransform="matrix(1 0 0 1 -7 -512.5)">
	<stop  offset="0" style="stop-color:#00AA60"/>
	<stop  offset="1" style="stop-color:#2E3192"/>
</linearGradient>
<path class="st35" d="M281.8,111.8c4.2,6.4,7.2,17.1,2.5,27.6C282.4,133.4,276.7,120.3,281.8,111.8z"/>
<linearGradient id="SVGID_36_" gradientUnits="userSpaceOnUse" x1="269.64" y1="625.9999" x2="285.7798" y2="625.9999" gradientTransform="matrix(1 0 0 1 -7 -512.5)">
	<stop  offset="0" style="stop-color:#00AA60"/>
	<stop  offset="1" style="stop-color:#2E3192"/>
</linearGradient>
<path class="st36" d="M262.6,99.7c11.7,7.6,17.1,22.2,16,27.6C269.3,119.6,264.4,103.8,262.6,99.7z"/>
<linearGradient id="SVGID_37_" gradientUnits="userSpaceOnUse" x1="193.5166" y1="785.75" x2="211.81" y2="785.75" gradientTransform="matrix(1 0 0 1 -7 -512.5)">
	<stop  offset="0" style="stop-color:#00AA60"/>
	<stop  offset="1" style="stop-color:#2E3192"/>
</linearGradient>
<path class="st37" d="M204.8,260.2c-10,6.8-20.6,14.6-17.9,26.1C194.3,280.6,204,278.4,204.8,260.2z"/>
<linearGradient id="SVGID_38_" gradientUnits="userSpaceOnUse" x1="214.35" y1="777.2999" x2="231.0448" y2="777.2999" gradientTransform="matrix(1 0 0 1 -7 -512.5)">
	<stop  offset="0" style="stop-color:#00AA60"/>
	<stop  offset="1" style="stop-color:#2E3192"/>
</linearGradient>
<path class="st38" d="M224,251.9c-10.1,8-18.4,15.1-16.4,25.8c0.8-0.6,3.4-2.1,6.3-4.2C220.1,268.9,224.3,264,224,251.9z"/>
<linearGradient id="SVGID_39_" gradientUnits="userSpaceOnUse" x1="234.483" y1="767.7" x2="248.6982" y2="767.7" gradientTransform="matrix(1 0 0 1 -7 -512.5)">
	<stop  offset="0" style="stop-color:#00AA60"/>
	<stop  offset="1" style="stop-color:#2E3192"/>
</linearGradient>
<path class="st39" d="M241.2,242c-8.6,9-15.6,16.1-13.3,26.4c0.7-0.6,3.2-2.2,5.8-4.5C239.3,259,243.1,253.6,241.2,242z"/>
<linearGradient id="SVGID_40_" gradientUnits="userSpaceOnUse" x1="253.0785" y1="755.9999" x2="264.4319" y2="755.9999" gradientTransform="matrix(1 0 0 1 -7 -512.5)">
	<stop  offset="0" style="stop-color:#00AA60"/>
	<stop  offset="1" style="stop-color:#2E3192"/>
</linearGradient>
<path class="st40" d="M255.5,229.9c-7.4,11.8-11.4,18.3-8.5,27.2C251.8,252,261.6,245.9,255.5,229.9z"/>
<linearGradient id="SVGID_41_" gradientUnits="userSpaceOnUse" x1="268.6704" y1="741.6" x2="277.6089" y2="741.6" gradientTransform="matrix(1 0 0 1 -7 -512.5)">
	<stop  offset="0" style="stop-color:#00AA60"/>
	<stop  offset="1" style="stop-color:#2E3192"/>
</linearGradient>
<path class="st41" d="M266.2,215.2c-4.7,14.1-6.2,20.2-2.3,27.8c0.2-0.4,0.8-1.1,1.5-2.1c0.8-1.2,1.6-2.4,2.3-3.7
	C271.4,230.5,272.2,224.1,266.2,215.2z"/>
<linearGradient id="SVGID_42_" gradientUnits="userSpaceOnUse" x1="279.1602" y1="723.9999" x2="287.2665" y2="723.9999" gradientTransform="matrix(1 0 0 1 -7 -512.5)">
	<stop  offset="0" style="stop-color:#00AA60"/>
	<stop  offset="1" style="stop-color:#2E3192"/>
</linearGradient>
<path class="st42" d="M273,197.7c-0.6,7.3-2.5,18,2.3,25.4c0.5,0.8,1,1.5,1.6,2.2c0.4-1,4.5-9.6,3-16.1
	C278.7,204.9,276.3,200.9,273,197.7z"/>
<linearGradient id="SVGID_43_" gradientUnits="userSpaceOnUse" x1="282.87" y1="704.35" x2="293.1" y2="704.35" gradientTransform="matrix(1 0 0 1 -7 -512.5)">
	<stop  offset="0" style="stop-color:#00AA60"/>
	<stop  offset="1" style="stop-color:#2E3192"/>
</linearGradient>
<path class="st43" d="M275.9,178.7c1.2,12.5,2.1,20.4,9.4,26.3c0-0.4,0.2-1.3,0.4-2.5c0.1-0.6,0.2-1.3,0.3-2l0.1-1.1
	c0-0.4,0-0.8,0.1-1.2c0.2-3.2-0.1-6.8-1.4-9.5C282.7,184.7,279.6,181.2,275.9,178.7z"/>
<linearGradient id="SVGID_44_" gradientUnits="userSpaceOnUse" x1="281.68" y1="683.55" x2="295.63" y2="683.55" gradientTransform="matrix(1 0 0 1 -7 -512.5)">
	<stop  offset="0" style="stop-color:#00AA60"/>
	<stop  offset="1" style="stop-color:#2E3192"/>
</linearGradient>
<path class="st44" d="M274.7,158.9c0.8,2.9,3.4,14,8.3,19.7c0.5,0.6,1,1.1,1.5,1.6c1.3,1.2,2.7,2.2,4.2,3
	C287.9,176.6,289.5,166.7,274.7,158.9z"/>
<linearGradient id="SVGID_45_" gradientUnits="userSpaceOnUse" x1="276.9" y1="662.6" x2="294.4" y2="662.6" gradientTransform="matrix(1 0 0 1 -7 -512.5)">
	<stop  offset="0" style="stop-color:#00AA60"/>
	<stop  offset="1" style="stop-color:#2E3192"/>
</linearGradient>
<path class="st45" d="M269.9,139.1c4.5,10.3,8.2,18.4,17.5,22C285.4,154.6,285.5,145.2,269.9,139.1z"/>
<linearGradient id="SVGID_46_" gradientUnits="userSpaceOnUse" x1="269.04" y1="642.2499" x2="289.14" y2="642.2499" gradientTransform="matrix(1 0 0 1 -7 -512.5)">
	<stop  offset="0" style="stop-color:#00AA60"/>
	<stop  offset="1" style="stop-color:#2E3192"/>
</linearGradient>
<path class="st46" d="M262,119.9c6,10.1,10.7,17.3,20.1,19.7C279.2,132.9,277.8,124.3,262,119.9z"/>
<g>
	<path class="st47" d="M100.5,80.1L95.1,87C95.9,81.6,97.8,79.3,100.5,80.1z"/>
	<g>
		<path class="st47" d="M107,160.9c-3.3-1.8-6.5-3.6-9.8-5.3c-1.1-0.5-2.3-0.9-3.4-1.2l0.8-0.7c-1-1.6-2.2-3.1-3.4-4.6
			c-1-0.8-2.1-1.7-3.2-2.4c-2.4-2-3-4.3-1.3-7.1c3.2-5.1,6.4-10.1,9.9-14.9c2.6-3.7,4.8-7.4,5-12.1c0-0.6,0.5-1.1,1.1-2.4l1.6,2.4
			c2.4-1.7,4.3-3.9,6.5-4.3c2.4-0.5,5.2,0.5,7.6,1.2c3.6,1.1,7,2.6,10.9,4.1c-4.3-4.9-10.2-8.2-16.5-9.6c-2-0.5-4.6,1.5-6.9,2.5
			c-1,0.5-1.7,1.7-2.8,2.8c-0.8-3.8-0.2-7.7,1.7-11c0.5-0.8,3.2-1.5,3.7-1c3.2,3.2,7.2,3.1,11.2,3.2c0.8-0.1,1.7,0.1,2.4,0.6
			c3.5,3.8,8.4,5.8,13.4,5.8c0.4,0,0.8,0.1,1.2,0.2c-2.3,4.2-1.9,5,2.5,7.3c1.5,0.8,2.8,2,3.8,3.4c2.6,5.1,6.6,9.2,11.6,11.9
			c9,5,8.9,5,3.3,13.5c2.7,3.3,5.6,0.7,8.8,0.1l-0.5,4.7l6.4-5.3l-1.5,5.2c-3.2-1-3.9,0.6-3.2,3.9l-7.4-1.4c0,0.3-0.1,1.1-0.1,1.9
			c-0.5,7.8-2,15.3-6.6,21.9c-1.7,2.4-4.4,4.1-7.3,4.5c-6.7,1.1-13.1,3.4-19.7,4.3c-8.1,1.1-16.3,1.7-24.3,1.9
			c-7.5,0.2-11.4-7.3-7.3-14c0.6-0.7,1.3-1,2.2-1.1c5.3-1,8.9-4.5,12.7-7.9c0.2-0.2,0.2-0.6,0.4-1.4L107,160.9L107,160.9z
			 M118.9,120.1c2.8,0.6,5.8,1.8,9.2,2.4c-2.1-4.2-7.4-7-7.4-7c-1.5-1-8.3-2.4-10-1.8c-1.9,0.7-3.4,2-4.5,3.6L118.9,120.1z"/>
		<path class="st47" d="M122.7,186.6c6.9-1.4,13.6-2.9,20.5-4.1c10-1.8,15.5-7.8,17.3-17.5c0.2-0.4,0.4-0.8,0.6-1
			c2.9,3.5,6.7,4.1,10.8,4c0.5,0,1,0.6,1.5,1c1.8,2.1,3.4,4.5,5.5,6.1c2.4,1.8,2.6,3.8,2.3,6.3c-7.4-1.2-13.3,1.1-17.5,7.2
			c-2.7,3.9-1.5,8-0.9,12.2c0.9,6.6,2.2,13.3-0.7,19.8c-2.4,5.6,0.2,10.4,3.4,14.9c2.9,4,7.1,7.3,8.1,12.7c0.1,0.6,2,1.1,3.1,1.1
			c0.5,0,1.3-0.9,1.6-1.6c0.3-0.9,0.5-1.9,0.6-2.8l7.1,7.6l-3.4,0.5c-6.8,1-13.4,2.3-20.3,3c-2.3,0.1-4.5-0.1-6.7-0.8
			c-4.5-0.9-8.9-2.2-13.3-3.3c-4.8-1.2-9.5-2.6-14.9-4c2.2-3.2,3.7-6.2,5.8-8.6c2.5-2.8,3-5.9,2.5-9.2c-0.4-2.8-1-5.6-2-8.4
			C130.1,210.1,126.4,198.5,122.7,186.6z"/>
		<path class="st47" d="M176.2,246.6c-3-4-5.8-8.3-9-12.1c-3.9-4.8-4.2-10-2.8-15.6c0.8-2.5,1.1-5.2,1.1-7.8
			c-0.1-4.5-0.7-9-1.2-13.4c-0.5-3.9-0.6-8.1,2.9-10.7c4.3-3.2,9.1-5.5,14.8-2.4c2.7,1.5,3.9-0.8,4.5-2.7c0.6-2.5,0.8-5,1-7.5
			l7.1-0.4c-0.5,3.5-0.8,6.9-1.4,10.1c-0.4,2.2-1.1,4.2-2.1,6.3c-0.9,1.7-2.1,3.2-3.3,4.6c-0.4,0.5-1.1,0.8-1.4,1.4
			c-2.8,5.8-6.3,11.6-5.1,18.5c0.7,3.8-0.9,6.7-3.5,9.2c-1.1,1.1-2.6,2-3.3,3.2c-0.7,1.3-0.9,3.5-0.3,4.2
			C179.1,236.1,176,241.6,176.2,246.6z"/>
		<path class="st47" d="M141.9,70.5c-0.9-0.7-1.4-0.9-1.9-1.2c-1.8-1.4-5.1-2.9-5-4.1c0.3-2.6,1.9-5.5,3.7-7.6
			c5-5.9,10.9-10.5,18.7-12.5c9.6-2.4,22.8,2.4,25.4,13.9c0.5,2,1.1,3.9,1.3,5.8c0.8,6.9-2.2,12.4-7.7,15.3s-12,3.9-18.5,0.9
			c-4.1-1.8-7.6-5-9.7-9c-2.9-5.4-0.5-14.5,5.5-15.8c4.7-1.1,9.8-0.9,14.7-0.5c2.7,0.2,5.5,5,5.5,7.3c-0.3,4.3-3.4,8.6-6.9,9.1
			c-1.9,0.4-4,0.8-5.8,0.3c-2.8-0.8-4.1-4-3.3-6.8c0.8-2.6,4.5-5.1,6.8-3.9c1.7,0.9,2.6,3.3,4.3,5.6c0.4-1.2,1.2-2.7,1-4.1
			c-0.2-2.6-2.2-4.9-4.8-5.5c-4.8-1.1-10.9,2.4-11.9,6.9c-1,4.5,2.7,10.2,7.8,11.2c12.5,2.6,16.3-3.8,15-14.6
			c-0.6-4.8-5.2-7.4-9.5-9c-7.1-2.6-18.2,0.8-22.5,7c-1.3,2-1.5,4.7-2.1,7.1C141.8,67.7,141.7,69.1,141.9,70.5z"/>
		<path class="st47" d="M191.8,250.5c-3.2,1-8.4-1.8-10.1-5.7c-1.1-2.6-1.6-5.5-2.5-8.1c-0.6-1.8-1-3.8-2.2-5.2
			c-1.6-2-1.1-3.3,0.4-4.9c1.3-1.3,2.4-2.9,3.7-4.2c2.2-2,3.1-5,2.4-7.8c-1.2-6.1,0.6-12.5,4.3-16.2c4.8-4.6,5.5-10.2,7.7-15.6
			c0.3-0.8,0.5-1.7,0.6-2.5c0.5-3.2,1.2-6.3,1.2-9.5c0-3.2-0.8-6.3-1.2-9.5c-0.2-1.2-0.5-2.4-0.8-3.5l1-0.5c1.1,2.5,2.4,5,3.5,7.5
			c0.6,1.4,0.8,3,1.5,4.4c2.5,5.5,2,11.1,1,16.6c-0.3,1.7-1.2,3.3-2.5,4.4c-7.1,5-9.6,12.2-10,20.4c-0.2,3.9-0.2,7.7,0,11.5
			c0.2,1.3,0.8,2.5,1.7,3.6c3,3.1,2.4,6.3,0.6,9.7c-0.2,0.4-0.4,0.8-0.7,1.1c-4.6,4.2-2.9,8.6-0.2,12.9
			C191.5,249.8,191.7,250.2,191.8,250.5z"/>
		<path class="st47" d="M225.8,77.3c2.1,2.8,4.1,5.6,6.1,8.5c1.1,1.6,2.4,3.2,3.4,4.9c3.8,6.5,5.2,13.6,5.9,21
			c1,10.8-1.2,20.9-6.2,30.4c-3,5.7-6.1,11.5-9.3,17.3c-3.9-3.9-1-7.2-0.6-10.6c0.1-0.7,0.8-1.3,0.7-1.9c-1-6.5,4.1-11,5.5-16.7
			c0.6-2.7,1.9-5.3,2.1-8c0.5-6.7,0.8-13.3-0.3-20.1C231.7,93.5,228.6,85.6,225.8,77.3z"/>
		<path class="st47" d="M200.4,89.6c4.2-3.8,3.9-8.5-0.8-13.1c-2.6-2.6-8.4-2.2-11.4,1.4c-3.8,4.5-6,15.1,2.4,19
			c3.6,1.6,8.4,0.8,12.6,1c1,0,2.1-0.7,3.3-0.7c-1.5,2.4-3.9,4.2-6.7,5c-10.3,3.3-18.5-3.6-18.5-14.3c0-6.3,2.9-11.2,4.8-16.6
			c0.4-0.7,1-1,1.8-1c7-0.4,13.3,1.4,17.9,6.9c2.5,2.9,3.3,6.5,1.2,10.2c-0.8,1.5-1.5,3-2.4,4.3c-2.2,3.3-5.5,4.5-8.7,3.5
			c-4.9-1.6-7.2-4.7-7.1-8.8c0-2.7,2.2-4.9,4.8-5.1c1.4-0.2,3.6,1.5,4.6,2.9C199.1,85.3,199.6,87.5,200.4,89.6z"/>
		<path class="st47" d="M169,43.2c7-2,14-0.4,21.1-0.1c-7.1-4.1-15.2-5.8-23.3-5c10.6-4.6,20.9-3.2,30.5,2.8
			c8.9,5.6,13.6,14.1,15.6,24.8c-2.9-1.5-5.5-2.6-7.6-4.1c-4.3-3-9.1-3.2-14-3.3c-1.8-0.1-3.5-0.2-5.3-0.5c-0.5-0.1-0.9-0.7-1.3-1
			c0.5-0.4,0.9-0.9,1.4-1c6.4-1.6,12.7-2,18.3,2.8l0.5-0.7c-0.5-0.8-0.9-1.4-1.5-2.1c-4.4-4.8-9.5-8.2-16.3-8.8
			c-6.1-0.6-12.1-1.6-18.1-2.4L169,43.2z"/>
		<path class="st47" d="M218.1,116.6l-0.9,5.1c0-3.6,0.1-7.7,0-11.8c0.1-2.5-0.3-5.1-0.9-7.4c-1.1-2.6-0.6-5.6,1.3-7.7
			c0.9-1.1,1.7-2.4,2.5-3.7c10.2,13.4,10.8,34.2,5.4,45.4c-2.3-3.6-4.7-7.4-6.8-11.4c-0.6-1.1,0.2-3,0.2-4.5c0-1.3-0.2-2.6-0.3-3.9
			H218.1z"/>
		<path class="st47" d="M186.5,67.4c0.4,0.6,0.3,0.5,0.3,0.4c-0.2-2.4-0.4-4.8-0.5-7.2c2.4,0,4.8,0,7.1,0
			c10.1,0.1,17.8,4.9,21.9,13.7c5.6,12,2.6,23.7-10.6,30.3c-4.2,2.1-9.1,2.4-13.6,1c-1.1-0.4-2.1-1.1-2.7-2.2
			c1.8,0.5,3.5,1.1,5.3,1.4c10.7,2,21.1-7.6,19.8-18.4c-0.9-8.7-5.5-14.4-14-16.7C195.7,68.6,191.4,68.3,186.5,67.4z"/>
		<path class="st47" d="M201,239.8c-1.1-0.6-2.2-1.1-3.3-1.6c-2.2-1-3.1-2.3-2.7-5.2c0.4-2.5-0.6-5.6-1.8-8c-1.8-3.5-3-6.7-2-10.7
			c1.2-4.5,1.7-9.1,2.6-13.6c0.2-0.8,0.5-1.5,0.9-2.2c2.6,2.7,5.3,5.4,7.9,8.1c3.3,3.5,3.1,7.7,1.7,11.8c-1,3-2.6,5.8-3.7,8.8
			C199.3,231.4,198,235.6,201,239.8z"/>
		<path class="st47" d="M177.5,121.8c0.7-0.1,1.4-0.6,2-0.4c2,0.8,4,1.5,6.2,2c-19.3-15.7-41.6-26.9-65.7-33l0.3-1
			c1.2,0.3,2.5,0.7,3.8,0.9c1.4,0.2,2.8,0.5,4.2,0.8c12.2,3.9,24.3,8.1,35.4,14.8c4.5,2.6,9.3,4.7,13.5,7.7
			c5.6,3.9,10.9,8.3,16.1,12.6c4,3.3,7.8,6.9,11.4,10.6c5.7,6.4,11.1,13.1,16.5,19.8c0.7,0.9,0.7,2.4,0.9,3.6l-1.1,0.5
			c-1.6-1.9-3.1-3.9-4.7-5.7c-4.5-5.5-8.9-11-13.7-16.2c-4.2-4.6-9-8.7-13.6-13c-0.9-0.8-2.3-0.9-3.5-1.3
			C182.8,123.6,180.1,122.7,177.5,121.8L177.5,121.8z"/>
		<path class="st47" d="M176.6,139.7c0.9,2,1.7,3.9,2.4,6c1.8,6.3,3.5,12.8,5,19.2c0.5,2.2-0.8,5.1,0.2,6.6c1.8,2.7,0.9,5.3,0.8,7.8
			c-0.2,1-0.7,2-1.3,2.7c0.2-4.4-2.4-7.1-5.1-10.2c-4.8-5.3-7.4-11.7-5.9-19.1c0.9-4.4,2-8.7,2.9-13.2L176.6,139.7z"/>
		<path class="st47" d="M211.8,165.6l6.9-3.5c0.4,2.1,0.8,4,0.9,6c0.9,7.1-1.6,14.3-6.7,19.4c-0.9,1-1.5,2.5-2.5,3.5
			c-1,0.9-3,2-3.2,1.7c-1.2-1.3-3-3.1-2.8-4.6c0.3-2.6,1.5-5.3,2.7-7.6C209.4,175.5,212.4,171,211.8,165.6z"/>
		<path class="st47" d="M215.7,128.8l-0.3,5.1l-0.6,0.1l-2.4-4.6l-0.6,0.2l3.7,9.5l-1-0.2l5.9,11.2l-1.1,0.7
			c-1.3-1.6-2.5-3.3-3.6-5.1c-3-5.8-7.4-11.2-7.1-18.2c0.1-2.1,1-4,1.7-6.1c10.1,3.9,17,23,10.7,30.9l-1.9-12.3l-1.1,2.3
			C214.5,138,217.1,132.9,215.7,128.8z"/>
		<path class="st47" d="M201.2,191.7c14.2,5.9,15.5,15.4,10.2,27.5c-1.5-3.4-2.5-6.5-4.2-9.2c-1.5-2.4-3.9-4.3-5.5-6.7
			c-1.5-2-3.6-4.2-3.7-6.4C197.9,195.1,200.3,193.1,201.2,191.7z"/>
		<path class="st47" d="M194.6,164.8c-2,0.3-4,0.5-6.1,0.5c-1-0.2-2-0.8-2.4-1.8c-1.6-5.5-2.9-11.3-4.4-16.8
			c-0.4-1.5-1.2-2.8-1.8-4.3c-1.1-3.2-2.3-6.3-3.5-10l3.1,0.5c-1.6,2.8-0.3,4.8,1.7,6.6c2.1,1.8,3.6,4.2,5.8,5.3
			c4.8,2.3,5.4,6.1,5.6,10.5C193.1,158.2,194,161.2,194.6,164.8z"/>
		<path class="st47" d="M215.4,158l-8.1-5.5l0.5-0.8l-4.9,1.9l0.2,0.7c1-0.2,2.1-0.3,3.1-0.2c1.1,0.3,2.2,1.1,3.8,2l-5.3,4.3
			l0.1,0.4c0.8-0.2,1.4-0.5,2.1-0.8c5.6-3.5,3.6-3.4,9.3,0.3c-3.2,2.7-8.1,3.6-11.5,1.4c-2.9-2-5.6-4.2-8.1-6.8
			c-1.9-1.9-2-4.4-0.4-6.7c1.6-2.3,3.6-2.5,6.1-1.5C206.1,148,211.4,152,215.4,158z"/>
		<path class="st47" d="M220.5,81.4c-1.8-3.9-4-7.8-5.4-11.9c-1.1-3.6-1-7.6-2-11.3c-2.1-7.9-6.9-13.9-13.3-18.4
			C211.1,41.9,228.2,65,220.5,81.4z"/>
		<path class="st47" d="M205.8,133.2l-1.3-3.6l-0.5,0.1l0.6,3.5c-5.6-5.1-9.3-11-12.3-17.3c-1.2-2.5-1.4-5,1.8-6.5
			C203.5,113.2,209.4,124.5,205.8,133.2z M203.3,128.5l0.6-8.9H203l-0.7,5.2l-4.6-2l1.7-1.3L203.3,128.5z"/>
		<path class="st47" d="M145.2,117.8c3.8-1.1,7.3-1.8,10.2,0.9c1.6,1.5,2.6,3.7,4,5.5c2.2,2.7,4.5,5.5,6.6,8.3
			c0.8,1,1.3,2.4,1.6,3.6c0.9,4.7-1,6.9-6,6.9c0-0.2-0.1-0.5,0-0.7c3.9-6.6,3.4-8.5-3.3-12.4c-4.1-2.4-8.8-4.3-11.3-8.9
			C146.5,120,145.8,118.9,145.2,117.8z"/>
		<path class="st47" d="M194.6,137.3l-2.7,5.2c2.6-2.8,5.9-4.1,9.6-0.8c-2.3,2.9-8.7,3.9-12.1,1.7c-2.3-1.5-4.4-3.3-6.3-5.4
			c-0.9-0.9-1.7-3.1-1.2-3.9c0.9-1.6,2.4-2.7,4.1-3.2c2.7-0.7,5.5,0.7,6.9,3.2l-0.1-0.1c-0.7,0.4-1.3,0.7-2.1,0.8
			c-1.7,0-3.5-0.3-5.2-0.5v0.6l9.3,2.6L194.6,137.3z"/>
		<path class="st47" d="M184.7,112.3l-2.5-5.8l-2.1,1l8,10.8l-0.8,0.6c-4.1-4.8-9.8-8.4-11.7-14.9c-0.3-1.4-0.1-2.9,0.8-4.2
			c0.3-0.5,2.8-0.3,3.6,0.5c3,2.5,6.4,5,8.5,8.2c1.6,2.5,1.3,6.2,2,10.2c-5.2-2.9-3.2-7.2-4.2-11l-0.6,4.4L184.7,112.3z"/>
		<path class="st47" d="M125,77.9h7.7c-1.1-3.1-2.5-4.2-6.6-5.5c-1.7-0.5-3.5-0.7-5.2-1.2c-1.1-0.5-2.2-1.3-2.8-2.4
			c15.1-1.4,16.5-1,22,5.4c-2.5,1.8-4.8,4.2-7.6,5.3c-2.3,0.8-5.1-0.1-7.7-0.2L125,77.9z"/>
		<path class="st47" d="M171.9,108.6c-3.6-3.6-7.3-7.1-10.8-10.9c-0.8-1.1-1.3-2.4-1.4-3.9c0-1.6,0.9-2.5,2.9-2.1
			c5.7,1.5,12,9.4,11.8,15.1c-3.2-1.7-3.4-1.8-4-7.7l-0.8,3.6l-4.2-4.8l-0.9,0.9l8.6,8.6L171.9,108.6z"/>
		<path class="st47" d="M213.3,100.8c4.1,6.8,1.3,13.3,1.6,19.4l-5.5-1.1c-0.3-3.9-1.1-8.3-0.8-12.6
			C208.8,104.4,211.5,102.8,213.3,100.8z"/>
		<path class="st47" d="M177.5,121.7l-5.9,0.7l-0.1,0.7c1.8,0,3.7,0.2,5.5,0.5c1.1,0.3,2.1,1.1,2.5,2.2h7.1c-2.5,4-5.8,5.6-9.7,4
			c-3.2-1.4-6.1-3.4-8.6-5.7c-2.1-1.9-0.9-4.3,1.8-4.6C172.7,119.1,175.7,119,177.5,121.7L177.5,121.7z"/>
		<path class="st47" d="M158.2,100c-2.2-1.4-4.3-2.7-6.4-4.2c-2.4-1.5-4.6-3.1-6.8-4.9c-1.6-1.5-1.7-3.5-0.4-5.4
			c7.3,2.1,13.4,5.2,14.3,13.6L158.2,100z"/>
		<path class="st47" d="M169.6,113.9c-0.8-0.1-1.5-0.2-2.3-0.3c-0.8-0.1-1.3-0.1-2-0.2l-1.5,3c1.2-0.6,2.4-1.4,3.5-1.6
			c1.2-0.2,2.4,0.3,3.9,0.6c-2.3,3.2-7.2,4.2-11.3,2.7c-1.3-0.6-2.6-1.1-3.9-1.7c-1.7-0.8-3.5-2-2.5-3.9c0.8-1.3,2.2-2.2,3.8-2.3
			c2-0.1,4,0.7,6,1.2c2.3,0.6,4.4,1.3,6.6,2L169.6,113.9z"/>
		<path class="st47" d="M99.9,75.4c4.5-7.4,15.6-8.6,19.8,2.3c-3.6-1.5-7.3,1.7-10.4-2.1c-0.7-0.8-2.7-0.5-4.1-0.5
			C103.6,75,102,75.2,99.9,75.4z"/>
		<path class="st47" d="M140.8,92.1l0.7,1.5c-2.8,1.1-12.7-7.8-12.4-11.2c6.7-1.6,13.8,3.5,14.2,10.4L140.8,92.1z"/>
		<path class="st47" d="M155.6,106.5c-2.5,3.8-4.6,4.6-8.5,3.5c-2.4-0.7-4.8-1.5-7.1-2.4c-2.1-0.9-2.2-3.5-0.1-4.3
			c2.4-1,5-0.8,8.1,1.1l-4.4,0.6l-0.1,0.8L155.6,106.5z"/>
		<path class="st47" d="M164.4,121.2c0.6,4.9,4.1,6.7,7.6,8.8c2.7,1.6,2.2,4.6,1.4,7c-0.7,2.1-2.4,3.9-3.9,5.8
			c1.8-6.9-1.7-11.8-5.5-16.8c-0.8-1-0.7-2.7-0.9-4.1L164.4,121.2z"/>
		<path class="st47" d="M112.5,67.7c3.1-4.9,12.9-8.5,21.6-8.2l-1.8,5.2C125.1,62.3,118.8,64.3,112.5,67.7z"/>
		<path class="st47" d="M139.8,98.6c-0.2,1,0,2.4-0.6,2.9c-3.3,3.5-11.4,3.2-14.5-0.5c-0.4-0.5,0.3-2.6,0.7-2.6
			c2.9-0.4,5.9-0.4,8.9-0.5l-5.5,1.5l0.2,1C132.5,98.6,136.4,101.3,139.8,98.6z"/>
		<path class="st47" d="M113.5,85.2c-1.5,0-2.8,0.4-3.8-0.1c-3.2-1.3-6.4-2.8-9.4-4.4c-0.3-0.2-0.1-2.4,0.3-2.6
			C104.9,76.2,111.6,79.6,113.5,85.2z"/>
		<path class="st47" d="M120,83.7l-1.8,2.3c-1.5-1.2-2.9-2.5-4.1-3.9c-0.3-0.4,0.5-2.4,0.9-2.4c4.5-0.8,12.1,2.5,12.6,8.2
			C123.8,88.8,122.3,85.6,120,83.7z"/>
		<path class="st47" d="M108,162.8c-3.7,2.3-6.7,4.5-10,6.1c-2.2,1.1-4.4-0.6-4.9-3c-0.4-1.9,0-3.2,2.4-3.2
			C99.4,162.8,103.2,162.8,108,162.8z"/>
		<path class="st47" d="M125.5,95.1c-2.7,3.8-10.6,4.9-14.1,1.9c-0.5-0.4-0.3-2.5,0-2.5c2.1-0.7,4.2-1.4,6.3-1.2
			C120.4,93.4,122.8,94.5,125.5,95.1z"/>
		<path class="st47" d="M136.1,80.8c4.8-6,9.7-6.6,13.7-2.3c-2.9,1.3-5.8,3-8.9,3.9C139.6,82.7,137.9,81.4,136.1,80.8z"/>
		<path class="st47" d="M178.5,81.2c1.2,13.8,0.7,11.1,6.5,18.8c-7.3-2.6-8.6-8.7-9.4-15.6c-0.1-1.1,1.1-2.5,1.8-3.8L178.5,81.2z"/>
		<path class="st47" d="M170.2,152.6c0.4,4.3-3.9,4.2-5.1,6.9c1.1,1.4,1.5,4.1,4.8,3.4c0.4-0.1,1.3,0.8,1.6,1.3
			c0.2,0.4-0.5,1.6-0.6,1.6c-1.9-0.4-4.5-0.3-5.5-1.5c-1.5-2-2.4-4.3-2.4-6.9c0.1-2.4,2.4-3.5,4.9-3.5
			C168.6,153.9,169.1,153.1,170.2,152.6z"/>
		<path class="st47" d="M109.5,90.7h-6v0.8h8.1l0.4,0.6c-1.6,0.8-3.1,2.1-4.8,2.4c-2.5,0.3-5.1,0.3-7.6-0.1c-0.8-0.1-1.5-1-2.2-1.6
			c0.7-0.7,1.1-1.9,1.9-2c3.4-0.6,6.8-0.8,10.2-1.1L109.5,90.7z"/>
		<path class="st47" d="M195.8,167.4c-0.6,1.3-1,3.6-1.9,3.8c-2.5,0.6-5.1,0.6-7.6-0.1c-1.7-0.6-1-3.1,1-3.5c2.4-0.5,5-0.7,7.5-1
			L195.8,167.4z"/>
		<path class="st47" d="M107,160.9c-3.9,0.2-7.7,0.7-11.6,0.6c-1,0-2.3-1.4-3-2.4c-0.3-0.8-0.2-1.6,0.2-2.3c1.2-0.4,2.4-0.4,3.7-0.1
			c2.4,0.9,4.7,2.4,7.1,3.4C104.7,160.6,105.8,160.9,107,160.9L107,160.9z"/>
		<path class="st47" d="M161.7,38.4l-12,8.3C149.8,40.7,154.6,37.6,161.7,38.4z"/>
		<path class="st47" d="M145.1,83.4c4.5-2,8.8-2.3,13.2-0.4C154,85.2,149.8,85.9,145.1,83.4z"/>
		<path class="st47" d="M216.1,246.4c-11.8-9.7-12.8-12.9-7.8-26.8"/>
		<path class="st47" d="M192.6,134.1c3.2,0.2,4.8,1.3,8.9,6.2l-7-2.9l0.1,0.1L192.6,134.1L192.6,134.1z"/>
		<path class="st47" d="M144.4,115.3c4-3.7,5.1-3.7,6.7-0.5L144.4,115.3z"/>
		<path class="st47" d="M117.7,89.2l-11-1.4l0.2-1.3l10.8,2V89.2z"/>
		<path class="st47" d="M172.3,95.1l-5.7-5.4l0.9-2.3c2.1,0.4,4.6,0,5.9,1.2c1.2,1.2,0.8,3.7,1.1,5.6L172.3,95.1z"/>
		<path class="st47" d="M137.7,109.8l6.2,1.8l-0.2,1l-6.4-0.9L137.7,109.8z"/>
	</g>
</g>
</svg>
