<svg width="30" height="30" xmlns="http://www.w3.org/2000/svg">

 <g>
  <title>background</title>
  <rect fill="none" id="canvas_background" height="32" width="32" y="-1" x="-1"/>
 </g>
 <g>
  <title>Layer 1</title>
  <path fill="#ffffff" stroke="null" id="svg_2" d="m26.45453,3l-22.90908,0c-1.4,0 -2.54545,1.14545 -2.54545,2.54545l0,15.27272c0,1.4 1.14545,2.54545 2.54545,2.54545l8.90909,0l0,2.54545l-2.54545,0l0,2.54545l10.18181,0l0,-2.54545l-2.54545,0l0,-2.54545l8.90909,0c1.4,0 2.54545,-1.14545 2.54545,-2.54545l0,-15.27272c0,-1.4 -1.14545,-2.54545 -2.54545,-2.54545zm0,17.81817l-22.90908,0l0,-15.27272l22.90908,0l0,15.27272z"/>
 </g>
</svg>