<svg width="30" height="30" xmlns="http://www.w3.org/2000/svg">

 <g>
  <title>background</title>
  <rect fill="none" id="canvas_background" height="32" width="32" y="-1" x="-1"/>
 </g>
 <g>
  <title>Layer 1</title>
  <path id="svg_1" fill="none" d="m0,0l24,0l0,24l-24,0l0,-24z"/>
  <path fill="#ffffff" stroke="null" id="svg_2" d="m27.1373,5.80872l1.19321,-1.19321c-2.08811,-2.08811 -4.77283,-3.13217 -7.45754,-3.13217s-5.36943,1.04406 -7.45754,3.13217l1.19321,1.19321c1.78981,-1.64066 4.02707,-2.53556 6.26434,-2.53556s4.47453,0.89491 6.26434,2.53556zm-1.34236,1.19321c-1.34236,-1.34236 -3.13217,-2.08811 -4.92198,-2.08811s-3.57962,0.74575 -4.92198,2.08811l1.19321,1.19321c1.04406,-1.04406 2.38641,-1.49151 3.72877,-1.49151c1.34236,0 2.68472,0.44745 3.72877,1.49151l1.19321,-1.19321zm-0.44745,9.39651l-2.98302,0l0,-5.96604l-2.98302,0l0,5.96604l-14.91509,0c-1.64066,0 -2.98302,1.34236 -2.98302,2.98302l0,5.96604c0,1.64066 1.34236,2.98302 2.98302,2.98302l20.88112,0c1.64066,0 2.98302,-1.34236 2.98302,-2.98302l0,-5.96604c0,-1.64066 -1.34236,-2.98302 -2.98302,-2.98302zm-16.4066,7.45754l-2.98302,0l0,-2.98302l2.98302,0l0,2.98302zm5.22028,0l-2.98302,0l0,-2.98302l2.98302,0l0,2.98302zm5.22028,0l-2.98302,0l0,-2.98302l2.98302,0l0,2.98302z"/>
 </g>
</svg>